<svg width="58" height="58" viewBox="0 0 58 58" fill="none" xmlns="http://www.w3.org/2000/svg">
<mask id="path-1-inside-1_1_3178" fill="white">
<path d="M0 29C0 12.9837 12.9837 0 29 0V0C45.0163 0 58 12.9837 58 29V29C58 45.0163 45.0163 58 29 58V58C12.9837 58 0 45.0163 0 29V29Z"/>
</mask>
<path d="M0 29C0 12.9837 12.9837 0 29 0V0C45.0163 0 58 12.9837 58 29V29C58 45.0163 45.0163 58 29 58V58C12.9837 58 0 45.0163 0 29V29Z" fill="#E5484D" fill-opacity="0.12"/>
<path d="M0 29M58 29M58 29M0 29M29 0M58 29M29 58M0 29M29 58V57C13.536 57 1 44.464 1 29H0H-1C-1 45.5685 12.4315 59 29 59V58ZM58 29H57C57 44.464 44.464 57 29 57V58V59C45.5685 59 59 45.5685 59 29H58ZM29 0V1C44.464 1 57 13.536 57 29H58H59C59 12.4315 45.5685 -1 29 -1V0ZM29 0V-1C12.4315 -1 -1 12.4315 -1 29H0H1C1 13.536 13.536 1 29 1V0Z" fill="#E5484D" fill-opacity="0.4" mask="url(#path-1-inside-1_1_3178)"/>
<path d="M16.4767 38L28.9965 16.7273L41.5164 38H16.4767ZM28.9965 35.6179C29.4705 35.6179 29.8737 35.4517 30.2061 35.1193C30.5446 34.7808 30.7139 34.3745 30.7139 33.9006C30.7139 33.4266 30.5446 33.0234 30.2061 32.6911C29.8737 32.3525 29.4705 32.1832 28.9965 32.1832C28.5226 32.1832 28.1163 32.3525 27.7778 32.6911C27.4454 33.0234 27.2792 33.4266 27.2792 33.9006C27.2792 34.3745 27.4454 34.7808 27.7778 35.1193C28.1163 35.4517 28.5226 35.6179 28.9965 35.6179ZM27.8701 30.0966H30.123L30.2892 23.8182H27.7039L27.8701 30.0966Z" fill="#E5484D"/>
</svg>
